<svg xmlns="http://www.w3.org/2000/svg" width="148" height="31" viewBox="0 0 148 31">
    <defs>
        <path id="a" d="M0 0h30.707v30.145H0"/>
    </defs>
    <g fill="none" fill-rule="evenodd">
        <path fill="#FFF" d="M45.394 23.688H44V8.655h1.394v7.771h.122l6.947-7.77h1.74l-5.88 6.489 6.48 8.541h-1.8l-5.646-7.552-1.963 2.188v5.364zM60.662 13.49c-1.994 0-3.377 1.51-3.5 3.822h6.826c-.03-2.312-1.342-3.822-3.326-3.822zm3.194 7.427h1.353c-.54 1.823-2.228 2.958-4.527 2.958-3.01 0-4.903-2.25-4.903-5.792 0-3.52 1.913-5.802 4.893-5.802 2.92 0 4.71 2.125 4.71 5.552v.605h-8.23v.062c.072 2.531 1.445 4.156 3.56 4.156 1.557 0 2.676-.635 3.144-1.74zm4.415 2.77V12.47h1.271v1.844h.132c.367-1.22 1.598-2.032 3.052-2.032.366 0 .733.021 1.028.094v1.365c-.245-.073-.794-.136-1.19-.136-1.7 0-2.96 1.313-2.96 3.084v7H68.27zm7.812 0V12.47h1.271v2.02h.133c.58-1.385 1.932-2.208 3.672-2.208 2.441 0 3.845 1.5 3.845 4.115v7.291H83.67V16.74c0-2.136-.956-3.23-2.858-3.23-2.055 0-3.398 1.396-3.398 3.51v6.668h-1.332zm16.6-10.197c-1.993 0-3.376 1.51-3.498 3.822h6.825c-.03-2.312-1.343-3.822-3.326-3.822zm3.195 7.427h1.353c-.54 1.823-2.228 2.958-4.527 2.958-3.01 0-4.903-2.25-4.903-5.792 0-3.52 1.913-5.802 4.893-5.802 2.92 0 4.71 2.125 4.71 5.552v.605h-8.23v.062c.072 2.531 1.445 4.156 3.56 4.156 1.557 0 2.676-.635 3.144-1.74zm4.516 2.77V8h1.333v15.688h-1.333zM111.31 24c-3.987 0-6.47-3-6.47-7.823s2.483-7.833 6.46-7.833c3.021 0 5.462 2.052 5.86 4.906h-1.415c-.427-2.125-2.238-3.583-4.445-3.583-3.072 0-5.035 2.53-5.035 6.51s1.953 6.5 5.045 6.5c2.268 0 4.028-1.292 4.435-3.27h1.414c-.417 2.76-2.736 4.593-5.849 4.593zm12.034-1.333c1.963 0 3.458-1.375 3.458-3.157v-1.312l-3.245.24c-1.861.135-2.756.843-2.756 2.125 0 1.291 1.068 2.104 2.543 2.104zm-.224 1.208c-2.146 0-3.693-1.281-3.693-3.292 0-1.958 1.414-3.093 3.947-3.27l3.428-.23V16c0-1.604-.946-2.5-2.726-2.5-1.505 0-2.594.656-2.858 1.74h-1.353c.254-1.782 1.953-2.959 4.252-2.959 2.573 0 4.028 1.375 4.028 3.709v7.697h-1.282V21.76h-.122c-.671 1.334-2.014 2.115-3.621 2.115zm8.392-.188V12.47h1.271v1.844h.133c.366-1.22 1.597-2.032 3.051-2.032.367 0 .733.021 1.028.094v1.365c-.244-.073-.794-.136-1.19-.136-1.7 0-2.96 1.313-2.96 3.084v7h-1.333zm11.77-10.197c-1.995 0-3.378 1.51-3.5 3.822h6.825c-.03-2.312-1.342-3.822-3.326-3.822zm3.193 7.427h1.353c-.54 1.823-2.228 2.958-4.527 2.958-3.01 0-4.903-2.25-4.903-5.792 0-3.52 1.913-5.802 4.893-5.802 2.92 0 4.71 2.125 4.71 5.552v.605h-8.23v.062c.072 2.531 1.445 4.156 3.561 4.156 1.556 0 2.675-.635 3.143-1.74zM15.234 8.709c-4.3 0-7.786 3.449-7.786 7.703 0 4.255 3.485 7.704 7.786 7.704 4.3 0 7.786-3.45 7.786-7.704S19.534 8.71 15.234 8.71m0 1.354c3.538 0 6.417 2.849 6.417 6.35 0 3.5-2.88 6.348-6.417 6.348-3.539 0-6.417-2.848-6.417-6.349 0-3.5 2.878-6.349 6.417-6.349"/>
        <path fill="#FFF" d="M13.874 6.029c-.068 0-.124.08-.124.177l.124 9.098c0 .098 2.491 2.113 2.491 2.113.069 0 .125-.08.125-.177V6.206c0-.098-.056-.177-.125-.177h-2.49z"/>
        <path fill="#FFF" d="M24.105 23.131L9.415 6.007c4.774-2.813 11.055-1.89 14.758 2.426a11.193 11.193 0 0 1-.068 14.698m-17.591-.08a11.193 11.193 0 0 1 .068-14.698l14.69 17.124c-4.775 2.813-11.055 1.891-14.758-2.425M27.076 6.03c-5.46-6.366-15.14-7.177-21.62-1.813S-1.85 19.089 3.611 25.455c5.46 6.365 15.14 7.177 21.62 1.813 6.479-5.364 7.305-14.873 1.845-21.238"/>
    </g>
</svg>
