<svg xmlns="http://www.w3.org/2000/svg" width="152" height="39" viewBox="0 0 152 39">
    <g fill="#FFF" fill-rule="evenodd">
        <path d="M45.797 24.398h1.495V13.17h-1.495v11.228zm0-12.567h1.495v-2.62h-1.495v2.62zM65.052 24.398h-1.554v-6.894c0-.867-.249-1.609-.747-2.226s-1.154-.926-1.967-.926c-.826 0-1.537.27-2.134.808a2.595 2.595 0 0 0-.895 2.009v7.229h-1.573v-7.229c0-.8-.298-1.47-.895-2.01-.597-.538-1.308-.807-2.134-.807-.813 0-1.462.306-1.947.916-.486.61-.728 1.356-.728 2.236v6.894h-1.554V17.68c0-1.405.4-2.534 1.2-3.388.747-.8 1.73-1.254 2.95-1.359 1.626-.131 2.924.565 3.895 2.088.97-1.523 2.268-2.22 3.894-2.088 1.22.105 2.209.558 2.97 1.359.813.854 1.219 1.983 1.219 3.388v6.717zM76.578 19.572c0 1.458-.47 2.673-1.407 3.644-.938.972-2.121 1.457-3.55 1.457-1.43 0-2.612-.485-3.55-1.457-.938-.971-1.406-2.186-1.406-3.644V13.17h1.495v6.592c0 .947.346 1.76 1.038 2.438.692.677 1.5 1.016 2.423 1.016s1.731-.339 2.423-1.016c.692-.678 1.039-1.49 1.039-2.438V13.17h1.495v6.402zM88.142 24.398h-1.494v-6.56c0-.945-.347-1.759-1.039-2.442-.692-.683-1.5-1.024-2.423-1.024-.937 0-1.75.341-2.443 1.024-.692.683-1.038 1.497-1.038 2.443v6.559H78.21v-6.402c0-1.457.472-2.669 1.416-3.634.945-.965 2.131-1.448 3.56-1.448 1.416 0 2.597.483 3.54 1.448.944.965 1.416 2.177 1.416 3.634v6.402zM89.715 24.398h1.495V13.17h-1.495v11.228zm0-12.567h1.495v-2.62h-1.495v2.62zM97.17 14.55h-2.832v9.848h-1.495V12.954c0-1.195.367-2.118 1.1-2.768.735-.65 1.68-.975 2.833-.975h.394v1.34h-.396c-.793.04-1.354.225-1.684.555-.501.53-.752 1.059-.752 1.588v.476h2.832v1.38zM108.479 13.17l-6.353 15.148h-1.6l1.683-4.266-4.292-10.882h1.629l3.586 8.934 3.79-8.934zM120.936 21.66c.039 1.34-.427 2.498-1.397 3.477-.97.978-2.13 1.46-3.481 1.447-1.298-.026-2.406-.509-3.324-1.447-.918-.94-1.377-2.059-1.377-3.359v-.216h1.495v.295c0 .893.322 1.654.966 2.285.645.63 1.408.945 2.29.945.92 0 1.708-.338 2.366-1.014.658-.676.967-1.474.927-2.394-.039-1.036-.413-1.857-1.121-2.461-.668-.565-1.508-.847-2.517-.847h-.61v-1.3h.574c.751.052 1.401-.148 1.949-.601.547-.453.807-1.074.781-1.862a2.31 2.31 0 0 0-.635-1.536 2.17 2.17 0 0 0-1.487-.69c-.649-.039-1.22.178-1.716.65-.496.473-.744 1.038-.744 1.694v.237h-1.495v-.138c0-1.076.38-2 1.14-2.767.76-.769 1.666-1.146 2.715-1.133 1.035.013 1.924.394 2.664 1.142.741.749 1.092 1.635 1.053 2.66-.026 1.22-.557 2.186-1.593 2.895 1.639.827 2.497 2.173 2.577 4.038"/>
        <path d="M111.739 21.942c.036 1.136.451 2.096 1.266 2.928.853.874 1.854 1.31 3.061 1.334 1.243.008 2.3-.424 3.204-1.336.902-.909 1.322-1.954 1.286-3.195-.074-1.73-.848-2.944-2.368-3.712l-.573-.29.53-.362c.937-.642 1.404-1.489 1.427-2.59.036-.93-.272-1.707-.942-2.384-.674-.682-1.459-1.018-2.4-1.03-.965-.025-1.749.322-2.44 1.02-.636.642-.972 1.383-1.024 2.258h.733c.034-.701.322-1.315.858-1.826.574-.546 1.245-.802 2-.754a2.549 2.549 0 0 1 1.74.808 2.69 2.69 0 0 1 .74 1.78c.03.913-.28 1.642-.92 2.172-.622.515-1.372.744-2.217.687h-.167v.54h.23c1.097 0 2.026.315 2.761.937.791.675 1.213 1.596 1.256 2.738.044 1.023-.304 1.923-1.035 2.673-.728.75-1.616 1.13-2.638 1.13-.98 0-1.839-.355-2.554-1.054-.697-.681-1.06-1.513-1.08-2.472h-.734zm4.373 5.022h-.058c-1.4-.028-2.606-.554-3.591-1.562-.986-1.007-1.486-2.226-1.486-3.624v-.596h2.254v.675c0 .794.28 1.453.852 2.013.577.564 1.238.837 2.024.837.82 0 1.506-.294 2.095-.9.587-.602.855-1.293.82-2.111-.035-.936-.358-1.652-.988-2.19-.602-.507-1.345-.755-2.271-.755h-.989v-2.06h.953c.683.047 1.233-.122 1.707-.514.455-.378.666-.886.644-1.556a1.922 1.922 0 0 0-.531-1.288 1.789 1.789 0 0 0-1.237-.571c-.54-.035-1.01.145-1.43.546-.421.401-.626.865-.626 1.418v.617H112v-.518c0-1.175.42-2.196 1.25-3.035.832-.84 1.83-1.258 2.988-1.245 1.135.014 2.12.437 2.93 1.255.815.822 1.206 1.812 1.162 2.941-.025 1.142-.458 2.092-1.29 2.83 1.433.905 2.197 2.272 2.273 4.073v.005c.043 1.44-.463 2.704-1.505 3.755-1.028 1.035-2.27 1.56-3.697 1.56zM131.166 23.65c.824-.854 1.236-1.878 1.236-3.073s-.412-2.207-1.236-3.034c-.799-.788-1.767-1.182-2.905-1.182-1.177 0-2.204.414-3.08 1.241-.916.893-1.374 1.983-1.374 3.27 0 1.235.438 2.252 1.314 3.053.785.722 1.727 1.083 2.826 1.083 1.269 0 2.342-.452 3.219-1.359m.99 1.143c-1.16 1.156-2.547 1.733-4.16 1.733-1.508 0-2.806-.512-3.894-1.536-1.167-1.116-1.75-2.502-1.75-4.156 0-1.642.59-3.053 1.769-4.235l5.39-5.397h2.058l-3.734 3.739c1.666-.105 3.093.394 4.28 1.497 1.188 1.104 1.782 2.483 1.782 4.138 0 1.655-.581 3.06-1.742 4.217"/>
        <path d="M128.261 16.742c-1.087 0-2.01.371-2.82 1.137-.843.822-1.255 1.802-1.255 2.993 0 1.133.39 2.04 1.192 2.772.719.663 1.56.984 2.57.984 1.172 0 2.135-.406 2.945-1.243.76-.787 1.13-1.705 1.13-2.809 0-1.1-.369-2.005-1.126-2.765-.729-.719-1.591-1.07-2.636-1.07zm-.314 8.646c-1.192 0-2.229-.398-3.082-1.183-.954-.87-1.438-1.992-1.438-3.333 0-1.387.5-2.579 1.488-3.542.95-.896 2.074-1.348 3.346-1.348 1.236 0 2.303.434 3.17 1.29.897.9 1.35 2.01 1.35 3.304 0 1.292-.452 2.415-1.343 3.338-.947.978-2.121 1.474-3.49 1.474zm1.72-13.807l-5.277 5.285c-1.116 1.12-1.659 2.416-1.659 3.967 0 1.56.534 2.83 1.633 3.88 1.022.963 2.211 1.432 3.632 1.432 1.522 0 2.796-.53 3.892-1.623 1.096-1.092 1.63-2.383 1.63-3.948 0-1.558-.544-2.82-1.66-3.858-1.118-1.039-2.427-1.496-4-1.397l-1.001.063 3.796-3.801h-.985zm-1.671 15.324c-1.6 0-2.998-.552-4.154-1.64-1.241-1.186-1.87-2.677-1.87-4.432 0-1.738.633-3.253 1.881-4.504l5.5-5.508h3.132l-3.738 3.743c1.377.1 2.594.635 3.627 1.594 1.262 1.174 1.902 2.66 1.902 4.416 0 1.752-.623 3.262-1.853 4.487-1.228 1.224-2.718 1.844-4.427 1.844zM149.75 18.725c-.014-1.76-.659-3.25-1.936-4.47-1.276-1.223-2.798-1.833-4.565-1.833-1.742 0-3.237.627-4.488 1.88-1.25 1.255-1.875 2.749-1.875 4.482s.628 3.224 1.885 4.471c1.257 1.248 2.756 1.878 4.497 1.891 1.781.014 3.313-.61 4.596-1.87 1.283-1.262 1.911-2.778 1.885-4.55m1.495-.1c0 2.193-.777 4.071-2.331 5.634-1.554 1.563-3.419 2.344-5.595 2.344-2.151 0-4.016-.752-5.596-2.255-1.58-1.504-2.37-3.32-2.37-5.447 0-2.18.77-4.048 2.31-5.603 1.542-1.557 3.394-2.334 5.557-2.334 2.176 0 4.052.735 5.625 2.205 1.6 1.51 2.4 3.33 2.4 5.456"/>
        <path d="M143.25 12.802c-1.653 0-3.033.579-4.22 1.77-1.187 1.19-1.764 2.568-1.764 4.212 0 1.644.58 3.018 1.772 4.202 1.195 1.185 2.58 1.768 4.233 1.78 1.684.007 3.107-.563 4.327-1.762 1.217-1.196 1.796-2.594 1.772-4.273v-.003c-.013-1.668-.607-3.042-1.818-4.199-1.197-1.146-2.645-1.727-4.303-1.727m.075 12.725h-.059c-1.835-.014-3.437-.687-4.761-2.002-1.325-1.315-1.997-2.91-1.997-4.74s.668-3.428 1.986-4.75c1.318-1.323 2.918-1.993 4.756-1.993 1.86 0 3.484.652 4.827 1.938 1.348 1.288 2.038 2.883 2.053 4.741.027 1.872-.646 3.495-2 4.825-1.337 1.314-2.954 1.98-4.805 1.98m-.105-14.182c-2.048 0-3.827.748-5.287 2.222s-2.2 3.27-2.2 5.336c0 2.01.757 3.75 2.251 5.171 1.5 1.427 3.294 2.151 5.335 2.151 2.062 0 3.854-.751 5.326-2.232 1.473-1.481 2.22-3.286 2.22-5.365 0-2.009-.767-3.751-2.28-5.18-1.492-1.395-3.298-2.103-5.365-2.103m.099 15.64c-2.242 0-4.213-.794-5.857-2.36-1.651-1.57-2.488-3.496-2.488-5.722 0-2.274.814-4.25 2.42-5.871 1.608-1.623 3.568-2.447 5.826-2.447 2.266 0 4.245.777 5.884 2.308 1.673 1.58 2.52 3.509 2.52 5.735 0 2.286-.821 4.273-2.442 5.901-1.619 1.63-3.592 2.456-5.863 2.456M18.86 3.65c.449-1.225.824-2.45 1.348-3.65.8 1.725 1.324 3.575 2.122 5.276 1.972.775 4.12 1.1 6.117 1.85-4.294 2.15-8.663 4.226-13.033 6.251 1.074-3.275 2.297-6.476 3.446-9.726M11.485 7.338c1.977-1.056 3.901-2.218 5.878-3.274-1.581 4.858-3.374 9.635-4.982 14.492-1.766-3.326-3.295-6.784-4.955-10.162-.527-1.135-1.133-2.218-1.581-3.38 1.924.66 3.716 1.743 5.64 2.324M20.193 12.457c4.375-2.153 8.776-4.305 13.178-6.407-.716 1.846-1.536 3.614-2.33 5.433 1.024 1.922 2.278 3.742 3.225 5.715a568.322 568.322 0 0 1-14.073-4.741M6.962 10.136c1.32 2.47 2.443 5.064 3.665 7.584.83 1.737 1.71 3.45 2.467 5.236A524.667 524.667 0 0 1 0 18.234c1.71-.783 3.518-1.321 5.253-2.055.561-2.03 1.148-4.038 1.71-6.043M24.334 14.942c3.653 1.184 7.279 2.529 10.933 3.766 1.155.43 2.39.753 3.518 1.318-1.907.753-3.84 1.48-5.721 2.233-.699 2.179-1.182 4.439-1.907 6.617-1.478-2.743-2.767-5.595-4.164-8.392-.886-1.83-1.853-3.66-2.66-5.542M24.182 24.378c.485-1.381.893-2.787 1.455-4.142.664 1.15 1.2 2.378 1.812 3.554 1.507 3.196 3.14 6.315 4.622 9.51-1.813-.74-3.6-1.559-5.438-2.326-1.915 1.023-3.728 2.25-5.693 3.222.995-3.299 2.195-6.545 3.242-9.818M4.146 21.286c4.138 1.287 8.174 2.832 12.262 4.196.617.206 1.233.438 1.8.721-4.423 2.034-8.767 4.272-13.24 6.23.72-1.802 1.62-3.527 2.314-5.355-.874-2.008-2.185-3.81-3.136-5.792M12.889 29.83c3.345-1.624 6.666-3.325 10.037-4.871-.9 3.016-2.059 5.98-3.063 8.995-.591 1.598-1.055 3.248-1.724 4.82-.824-1.753-1.416-3.609-2.188-5.387-2.085-.773-4.272-1.211-6.382-1.804 1.003-.748 2.238-1.16 3.32-1.753"/>
    </g>
</svg>
