<svg xmlns="http://www.w3.org/2000/svg" width="143" height="24" viewBox="0 0 143 24">
    <g fill="#FFF" fill-rule="evenodd">
        <path d="M37.47 17.694c-3.11 0-5.046-2.3-5.046-6s1.936-6.009 5.039-6.009c2.356 0 4.26 1.574 4.57 3.764H40.93c-.333-1.63-1.745-2.75-3.467-2.75-2.396 0-3.928 1.943-3.928 4.995s1.524 4.986 3.936 4.986c1.77 0 3.142-.991 3.46-2.51h1.102c-.325 2.118-2.134 3.524-4.562 3.524zm6.912-.24V5.423h1.04v12.033h-1.04zm7.252-.806c1.761 0 2.809-1.319 2.809-3.5s-1.048-3.5-2.809-3.5c-1.762 0-2.809 1.319-2.809 3.5s1.047 3.5 2.809 3.5zm0 .95c-2.388 0-3.88-1.702-3.88-4.45 0-2.749 1.492-4.443 3.88-4.443s3.888 1.694 3.888 4.443c0 2.748-1.5 4.45-3.888 4.45zM64.663 8.85v8.606h-.992v-1.55h-.096c-.428 1.07-1.475 1.693-2.84 1.693-1.904 0-3.039-1.182-3.039-3.156V8.85h1.04v5.33c0 1.606.8 2.46 2.26 2.46 1.604 0 2.627-1.046 2.627-2.676V8.849h1.04zm5.871 8.75c-2.182 0-3.618-1.774-3.618-4.443 0-2.669 1.452-4.45 3.618-4.45 1.301 0 2.396.695 2.88 1.821h.096V5.422h1.039v12.033h-1v-1.718h-.095c-.508 1.15-1.61 1.861-2.92 1.861zm.222-7.95c-1.69 0-2.769 1.366-2.769 3.499 0 2.141 1.08 3.5 2.77 3.5 1.681 0 2.768-1.375 2.768-3.5 0-2.11-1.095-3.5-2.769-3.5zm13.497 6.815v.99h-6.816V5.925h1.087v10.54h5.729zm2.142.99V8.85h1.04v8.606h-1.04zm.516-10.522a.78.78 0 0 1 0-1.558.78.78 0 0 1 0 1.558zm3.245 10.523V8.849h.992v1.55h.103c.453-1.062 1.508-1.694 2.865-1.694 1.904 0 2.999 1.151 2.999 3.157v5.593h-1.04v-5.33c0-1.638-.745-2.477-2.23-2.477-1.602 0-2.65 1.07-2.65 2.693v5.114h-1.039zm16.465-8.606v8.606h-.992v-1.55h-.096c-.428 1.07-1.475 1.693-2.84 1.693-1.904 0-3.039-1.182-3.039-3.156V8.85h1.04v5.33c0 1.606.8 2.46 2.26 2.46 1.604 0 2.627-1.046 2.627-2.676V8.849h1.04zm5.538 5.09h-.095l-2.333 3.516h-1.19l3.015-4.331-3.04-4.275h1.255l2.324 3.436h.096l2.309-3.436h1.198l-3 4.235 3.031 4.37h-1.245l-2.325-3.515zm14.718-8.254c3.214 0 5.174 2.317 5.174 6 0 3.676-1.952 6.01-5.174 6.01-3.229 0-5.189-2.326-5.189-6.01 0-3.69 2-6 5.19-6zm0 1.015c-2.499 0-4.078 1.934-4.078 4.986 0 3.036 1.547 4.994 4.078 4.994 2.516 0 4.063-1.958 4.063-4.994 0-3.052-1.555-4.986-4.063-4.986zm7.102 7.758h1.095c.15 1.327 1.46 2.237 3.205 2.237 1.714 0 2.944-.966 2.944-2.245 0-1.086-.785-1.79-2.555-2.229l-1.309-.336c-2.15-.535-3.055-1.438-3.055-3.004 0-1.861 1.595-3.196 3.92-3.196 2.19 0 3.809 1.303 3.928 3.06h-1.095c-.175-1.23-1.278-2.061-2.865-2.061-1.642 0-2.777.91-2.777 2.165 0 1.007.706 1.59 2.452 2.03l1.135.287c2.364.592 3.332 1.534 3.332 3.164 0 2.014-1.642 3.364-4.15 3.364-2.364 0-4.07-1.31-4.205-3.236zM12.768 0c.132.035.264.072.397.105 2.758.7 4.823 2.226 5.772 5.017.41 1.203.136 2.382-.38 3.495-.257.554-.483 1.135-.891 1.608-.117.137-.194.312-.417.396.285-2.54.207-5.032-1.563-7.03C14 1.686 11.823.601 9.13.462 9.632.105 10.15.211 10.563 0h2.205M23.333 12.673c-.19.087-.167.277-.205.436-.57 2.46-1.96 4.267-4.214 5.396-1.517.76-3.005.513-4.46-.155-.495-.227-.992-.48-1.432-.82-.133-.102-.282-.183-.388-.393.249-.052.464.005.683.02 2.093.146 4.185.042 5.94-1.227 1.795-1.301 2.845-3.18 3.323-5.364.097-.444.156-.898.239-1.38.358.375.135.945.514 1.267v2.22M0 10.453c.268-1.279.716-2.48 1.509-3.53 1.037-1.376 2.421-2.24 4.05-2.71.601-.17 1.23-.03 1.818.094 1.224.258 2.294.877 3.328 1.658C4.758 5.35 1.327 7.982.396 13.939c-.27-.395-.204-.874-.396-1.266v-2.22"/>
        <path d="M5.408 21.092c-1.309-.623-2.43-1.456-3.163-2.718C.87 16.002.671 13.552 1.87 11.048c.484-1.013 1.394-1.592 2.355-2.035a8.921 8.921 0 0 1 2.32-.715c.113-.018.26-.098.322.062.047.123-.085.181-.167.243-1.613 1.179-2.613 2.826-3.422 4.606-.32.703-.299 1.474-.217 2.228.222 2.07.948 3.934 2.289 5.538.028.031.039.078.058.117M1.96 5.35a4.599 4.599 0 0 1 1.138-1.731c1.187-1.143 2.535-2.032 4.186-2.353 1.637-.319 3.23-.192 4.744.54 1.297.627 2.015 1.757 2.469 3.071.222.644.413 1.309.413 2.07C11.108 2.103 6.76 1.991 1.96 5.35M21.242 17.784c-.527 1.221-1.341 2.19-2.435 2.889-2.437 1.557-5 1.845-7.638.57-1.266-.612-2.016-1.713-2.42-3.051-.166-.543-.372-1.079-.419-1.655-.007-.087-.064-.196.04-.247.106-.052.169.049.219.122.926 1.343 2.27 2.175 3.619 2.996 1.067.65 2.239.738 3.458.637 2.094-.173 3.95-.902 5.576-2.261M16.253 14.771c.296-.227.572-.433.843-.646.868-.685 1.497-1.567 2.08-2.499 1.901-3.042 1.02-5.881-.592-8.67-.188-.326-.446-.61-.639-.95.83.338 1.543.855 2.125 1.525 1.995 2.293 2.587 4.898 1.63 7.82-.556 1.692-1.82 2.594-3.44 3.09-.54.166-1.069.375-1.64.409-.106.006-.211.049-.367-.079"/>
        <path d="M13.994 22.683c-1.009.488-2.062.511-3.115.438-2.911-.205-5.59-2.313-6.485-5.11-.382-1.195-.078-2.344.376-3.456.232-.57.554-1.099.9-1.608.073-.106.128-.308.28-.254.181.064.101.267.084.41a9.674 9.674 0 0 0 .114 3.124c.305 1.467.74 2.86 1.93 3.886 1.65 1.421 3.528 2.307 5.698 2.538.072.008.145.021.218.032M6.411 7.107c.004-.12.072-.134.126-.15 1.201-.37 2.418-.485 3.657-.223.126.026.32.02.304.207-.019.215-.228.188-.365.162-1.238-.247-2.479-.223-3.722.004M16.192 6.352c.082.306.164.612.25.917.113.412.122.84.234 1.26.16.595-.188 1.16-.267 1.747-.01.078-.083.14-.168.119-.159-.04-.16-.179-.132-.297.127-.557.16-1.12.157-1.69a22.585 22.585 0 0 0-.074-2.056M4.814 11.88c.155-.42.402-.782.681-1.12.49-.59 1.006-1.156 1.652-1.583.095-.062.207-.186.32-.047.09.113.048.258-.06.327-1.007.643-1.758 1.551-2.524 2.444-.003.006-.025-.007-.069-.021"/>
        <path d="M7.1 16.75c-.443-1.178-.601-2.39-.334-3.637.028-.128.047-.315.232-.286.186.03.156.206.13.339-.238 1.191-.191 2.38-.028 3.583M11.997 18.414A8.941 8.941 0 0 1 9.28 16.13c-.09-.11-.23-.279-.06-.398.163-.113.27.075.362.189a13.833 13.833 0 0 0 2.272 2.244c.058.044.14.072.143.25M11.312 4.837c.57.134 1.029.457 1.435.842.474.451.975.886 1.312 1.463.052.088.15.192.028.283-.102.076-.207.012-.282-.07-.082-.09-.154-.192-.226-.289-.6-.798-1.285-1.51-2.106-2.082-.06-.04-.107-.097-.16-.147M16.62 16.14c-1.126.395-2.271.521-3.445.257-.116-.026-.264-.05-.259-.212.005-.147.13-.163.24-.14 1.149.243 2.306.159 3.465.096M18.372 11.414c-.52 1.117-1.334 1.957-2.366 2.59-.08.049-.17.092-.238-.012-.048-.072-.02-.153.027-.213s.1-.12.163-.158a8.62 8.62 0 0 0 2.414-2.207"/>
    </g>
</svg>
