<svg xmlns="http://www.w3.org/2000/svg" xmlns:xlink="http://www.w3.org/1999/xlink" width="56" height="56" viewBox="0 0 56 56">
    <defs>
        <circle id="b" cx="24" cy="24" r="24"/>
        <filter id="a" width="125%" height="125%" x="-12.5%" y="-12.5%" filterUnits="objectBoundingBox">
            <feOffset in="SourceAlpha" result="shadowOffsetOuter1"/>
            <feGaussianBlur in="shadowOffsetOuter1" result="shadowBlurOuter1" stdDeviation="2"/>
            <feComposite in="shadowBlurOuter1" in2="SourceAlpha" operator="out" result="shadowBlurOuter1"/>
            <feColorMatrix in="shadowBlurOuter1" values="0 0 0 0 0 0 0 0 0 0 0 0 0 0 0 0 0 0 0.09 0"/>
        </filter>
    </defs>
    <g fill="none" fill-rule="evenodd">
        <g transform="matrix(0 1 1 0 4 4)">
            <use fill="#000" filter="url(#a)" xlink:href="#b"/>
            <circle cx="24" cy="24" r="23.5" fill="#FFF" stroke="#EDEDED" stroke-linejoin="square"/>
        </g>
        <path fill="#666" fill-rule="nonzero" d="M20.156 26.063a.558.558 0 0 0 .006.78.536.536 0 0 0 .767-.006l7.083-7.314v17.925c0 .305.243.552.542.552.3 0 .543-.247.543-.552v-17.84l6.974 7.197c.21.217.554.22.767.005a.558.558 0 0 0 .006-.78l-7.392-7.628a1.293 1.293 0 0 0-1.862-.016l-7.434 7.677z"/>
    </g>
</svg>
