<svg xmlns="http://www.w3.org/2000/svg" xmlns:xlink="http://www.w3.org/1999/xlink" width="46" height="46" viewBox="0 0 46 46">
    <defs>
        <circle id="b" cx="19" cy="19" r="19"/>
        <filter id="a" width="131.6%" height="131.6%" x="-15.8%" y="-15.8%" filterUnits="objectBoundingBox">
            <feOffset in="SourceAlpha" result="shadowOffsetOuter1"/>
            <feGaussianBlur in="shadowOffsetOuter1" result="shadowBlurOuter1" stdDeviation="2"/>
            <feComposite in="shadowBlurOuter1" in2="SourceAlpha" operator="out" result="shadowBlurOuter1"/>
            <feColorMatrix in="shadowBlurOuter1" values="0 0 0 0 0 0 0 0 0 0 0 0 0 0 0 0 0 0 0.09 0"/>
        </filter>
    </defs>
    <g fill="none" fill-rule="evenodd">
        <g transform="translate(4 4)">
            <use fill="#000" filter="url(#a)" xlink:href="#b"/>
            <circle cx="19" cy="19" r="18.5" fill="#FFF" stroke="#EDEDED" stroke-linejoin="square"/>
        </g>
        <path fill="#666" fill-rule="nonzero" d="M22.563 31.344c.217.21.566.208.78-.006a.536.536 0 0 0-.006-.767l-7.314-7.083h17.925a.547.547 0 0 0 .552-.542c0-.3-.247-.543-.552-.543h-17.84l7.197-6.974a.536.536 0 0 0 .005-.767.558.558 0 0 0-.78-.006l-7.628 7.392a1.293 1.293 0 0 0-.016 1.862l7.677 7.434z"/>
    </g>
</svg>
