<svg xmlns="http://www.w3.org/2000/svg" xmlns:xlink="http://www.w3.org/1999/xlink" width="46" height="46" viewBox="0 0 46 46">
    <defs>
        <circle id="b" cx="19" cy="19" r="19"/>
        <filter id="a" width="131.6%" height="131.6%" x="-15.8%" y="-15.8%" filterUnits="objectBoundingBox">
            <feOffset in="SourceAlpha" result="shadowOffsetOuter1"/>
            <feGaussianBlur in="shadowOffsetOuter1" result="shadowBlurOuter1" stdDeviation="2"/>
            <feComposite in="shadowBlurOuter1" in2="SourceAlpha" operator="out" result="shadowBlurOuter1"/>
            <feColorMatrix in="shadowBlurOuter1" values="0 0 0 0 0 0 0 0 0 0 0 0 0 0 0 0 0 0 0.09 0"/>
        </filter>
    </defs>
    <g fill="none" fill-rule="evenodd">
        <g transform="matrix(-1 0 0 1 42 4)">
            <use fill="#000" filter="url(#a)" xlink:href="#b"/>
            <circle cx="19" cy="19" r="18.5" fill="#FFF" stroke="#EDEDED" stroke-linejoin="square"/>
        </g>
        <path fill="#666" fill-rule="nonzero" d="M23.437 31.344a.558.558 0 0 1-.78-.006.536.536 0 0 1 .006-.767l7.314-7.083H12.052a.547.547 0 0 1-.552-.542c0-.3.247-.543.552-.543h17.84l-7.197-6.974a.536.536 0 0 1-.005-.767.558.558 0 0 1 .78-.006l7.628 7.392a1.293 1.293 0 0 1 .016 1.862l-7.677 7.434z"/>
    </g>
</svg>
