<svg xmlns="http://www.w3.org/2000/svg" width="174" height="26" viewBox="0 0 174 26">
    <g fill="#6D6D6D" fill-rule="evenodd">
        <path d="M91.72 20.573c-3.005 0-5.593-2.347-5.593-7.4 0-5.054 2.588-7.403 5.593-7.403 1.174 0 2.169.238 3.044.735l-.418.997c-.696-.418-1.551-.657-2.546-.657-2.389 0-4.42 1.95-4.42 6.327s2.031 6.307 4.42 6.307c.995 0 1.85-.218 2.546-.637l.418.995c-.875.497-1.87.736-3.044.736M97.014 5.284h1.151v15.309h-1.151zM114.42 20.593c-2.476 0-3.88-1.152-3.88-3.589v-6.921h1.15v6.94c0 1.756.916 2.596 2.73 2.596 1.093 0 2.049-.215 2.517-.43v-9.106h1.152v9.789c-.762.39-2.166.721-3.669.721M126.559 5.284v4.892c-.72-.184-1.6-.309-2.517-.309-2.476 0-3.495 1.166-3.882 3.59 0 0-.11.82-.11 1.879 0 1.06.11 1.668.11 1.668.406 2.453 1.406 3.589 3.882 3.589 1.5 0 2.908-.331 3.668-.935V5.284h-1.151zm0 13.905c-.468.215-1.424.43-2.517.43-1.814 0-2.485-.86-2.73-2.595 0 0-.111-.636-.111-1.688 0-1.051.11-1.9.11-1.9.344-1.724.917-2.593 2.73-2.593 1.094 0 2.05.215 2.518.429v7.917zM129.914 20.593V5.283h2.204V18.74h4.856v1.853h-7.06M140.054 8.17c-.702 0-1.268-.547-1.268-1.21 0-.662.566-1.208 1.268-1.208.701 0 1.267.546 1.267 1.209 0 .662-.566 1.209-1.267 1.209zm-1.072 1.913h2.145v10.51h-2.145v-10.51zM149.587 20.593v-6.807c0-1.227-.74-1.987-2.202-1.987-.78 0-1.504.137-1.933.313v8.481h-2.125v-9.77c1.053-.43 2.4-.74 4.038-.74 2.946 0 4.369 1.287 4.369 3.509v7.001h-2.147M158.192 20.593c-2.772 0-4.254-1.152-4.254-3.784v-6.726h2.125v6.766c0 1.346.724 1.989 2.129 1.989.817 0 1.52-.137 1.872-.292v-8.463h2.126v9.77c-.858.428-2.4.74-3.998.74M171.036 20.593l-2.459-3.998h-.037l-2.458 3.998h-2.439l3.61-5.461-3.316-5.05h2.399l2.204 3.665h.037l2.206-3.664h2.398l-3.316 5.049 3.61 5.461h-2.44M108.227 13.456c-.387-2.423-1.406-3.589-3.882-3.589-2.478 0-3.495 1.166-3.882 3.59 0 0-.11.82-.11 1.879 0 1.06.11 1.668.11 1.668.406 2.453 1.404 3.589 3.882 3.589 2.476 0 3.475-1.136 3.882-3.589 0 0 .107-.608.107-1.668s-.107-1.88-.107-1.88zm-1.152 3.568c-.246 1.734-.916 2.595-2.73 2.595-1.816 0-2.486-.86-2.731-2.595 0 0-.109-.636-.109-1.688 0-1.051.109-1.9.109-1.9.342-1.724.915-2.593 2.73-2.593s2.388.87 2.731 2.594c0 0 .11.848.11 1.899 0 1.052-.11 1.688-.11 1.688zM70.14.123c.147.04.294.08.442.116 3.073.774 5.373 2.462 6.431 5.55.456 1.331.151 2.636-.423 3.867-.287.613-.538 1.255-.994 1.78-.13.15-.215.345-.464.437.317-2.81.23-5.566-1.741-7.777C71.51 1.989 69.087.788 66.086.634c.56-.395 1.137-.278 1.598-.511h2.456M81.91 14.144c-.213.096-.186.306-.228.482-.634 2.72-2.184 4.72-4.695 5.97-1.69.841-3.347.567-4.968-.172-.552-.252-1.106-.531-1.596-.907-.148-.113-.315-.203-.432-.435.277-.057.517.006.76.023 2.333.16 4.663.046 6.617-1.359 2.001-1.439 3.17-3.518 3.703-5.933.108-.492.174-.994.266-1.528.4.415.15 1.046.573 1.402v2.457M55.916 11.687c.299-1.414.798-2.743 1.68-3.906 1.157-1.522 2.698-2.478 4.513-2.996.67-.19 1.37-.035 2.025.103 1.364.285 2.556.97 3.708 1.834-6.626-.68-10.448 2.232-11.485 8.822-.302-.437-.227-.967-.441-1.4v-2.457"/>
        <path d="M61.94 23.458c-1.457-.69-2.707-1.612-3.523-3.008-1.533-2.624-1.754-5.334-.418-8.105.54-1.12 1.553-1.76 2.623-2.251a9.99 9.99 0 0 1 2.586-.791c.125-.02.289-.108.357.068.054.137-.093.202-.185.27-1.798 1.304-2.911 3.126-3.813 5.095-.356.779-.332 1.631-.241 2.465.247 2.29 1.056 4.352 2.55 6.127.03.035.043.086.064.13M58.099 6.041a5.085 5.085 0 0 1 1.268-1.914c1.322-1.265 2.825-2.249 4.664-2.604 1.823-.352 3.598-.212 5.285.598 1.445.693 2.244 1.944 2.75 3.398.248.712.46 1.447.46 2.29-4.236-5.36-9.08-5.484-14.427-1.768M79.58 19.798c-.587 1.351-1.494 2.423-2.712 3.196-2.715 1.723-5.57 2.041-8.51.631-1.41-.677-2.245-1.896-2.696-3.376-.185-.6-.414-1.193-.466-1.83-.008-.097-.071-.217.045-.274.117-.058.187.054.243.135 1.031 1.486 2.53 2.407 4.032 3.315 1.189.72 2.494.816 3.853.704 2.332-.191 4.4-.998 6.211-2.501M74.023 16.465c.33-.252.637-.48.939-.716.967-.757 1.667-1.732 2.317-2.764 2.118-3.365 1.136-6.506-.66-9.592-.21-.36-.496-.675-.711-1.05a6.225 6.225 0 0 1 2.367 1.686c2.222 2.538 2.882 5.42 1.815 8.652-.619 1.872-2.026 2.87-3.831 3.42-.601.182-1.191.413-1.828.45-.118.007-.235.055-.408-.086"/>
        <path d="M71.506 25.217c-1.124.541-2.298.566-3.47.485-3.244-.226-6.229-2.559-7.225-5.653-.426-1.322-.087-2.593.42-3.823.258-.632.616-1.216 1.001-1.78.081-.116.143-.34.313-.28.201.07.112.295.092.453a10.63 10.63 0 0 0 .128 3.456c.34 1.624.824 3.165 2.15 4.3 1.838 1.572 3.93 2.551 6.348 2.807.08.009.162.024.243.035M63.058 7.985c.004-.133.08-.148.14-.166 1.339-.41 2.694-.535 4.075-.246.14.03.356.022.338.229-.02.238-.254.208-.407.179-1.379-.273-2.761-.246-4.146.004M73.954 7.15c.092.339.183.677.278 1.015.127.456.137.93.262 1.394.177.658-.21 1.282-.298 1.932a.152.152 0 0 1-.187.132c-.176-.044-.178-.197-.147-.329.141-.616.177-1.24.175-1.87a24.813 24.813 0 0 0-.083-2.273M61.28 13.266c.171-.465.446-.865.758-1.238.545-.654 1.12-1.28 1.84-1.752.105-.069.231-.206.355-.052.102.124.055.285-.065.362-1.122.711-1.96 1.716-2.812 2.704-.004.005-.028-.009-.077-.024"/>
        <path d="M63.825 18.653c-.493-1.302-.669-2.642-.371-4.023.03-.141.051-.348.258-.316.207.032.173.228.144.375-.264 1.317-.212 2.634-.03 3.964M69.281 20.495a9.944 9.944 0 0 1-3.027-2.528c-.1-.123-.257-.309-.067-.44.182-.126.3.082.404.208a15.36 15.36 0 0 0 2.53 2.483c.065.05.156.08.16.277M68.518 5.474c.636.148 1.146.506 1.599.932.528.499 1.086.98 1.461 1.618.058.098.167.213.031.313-.113.084-.23.014-.314-.077-.091-.1-.17-.212-.252-.32-.668-.883-1.43-1.67-2.346-2.303-.066-.044-.119-.107-.179-.163M74.432 17.98c-1.255.436-2.53.575-3.839.283-.128-.029-.293-.056-.288-.234.006-.162.146-.18.267-.155 1.28.27 2.569.176 3.86.106M76.383 12.75c-.579 1.236-1.486 2.165-2.636 2.865-.088.055-.188.102-.265-.012-.053-.08-.023-.17.03-.237a.718.718 0 0 1 .182-.174 9.58 9.58 0 0 0 2.689-2.442M6.778 9.21l-.559 2.71-1.791 7.834a1.24 1.24 0 0 1-.213.512c-.096.123-.239.184-.431.184h-.608c-.204 0-.365-.04-.483-.118-.118-.08-.205-.242-.262-.487L.08 7.82C.035 7.686.074 7.62.198 7.62h.998c.158 0 .242.06.253.183l1.438 7.943.524 3.02h.085l.66-3.038 1.657-7.432c.034-.183.1-.34.203-.475.102-.134.282-.201.54-.201h.576c.214 0 .37.06.466.183.095.122.164.286.21.493l1.641 7.378.643 3.092h.084l.559-3.11 1.455-7.853c.01-.123.09-.183.236-.183h.98c.125 0 .164.067.12.201L11.14 19.845c-.056.245-.144.407-.261.487-.119.078-.28.118-.482.118h-.61c-.191 0-.332-.058-.423-.174-.09-.116-.164-.29-.22-.522l-1.776-7.87-.54-2.673h-.05M18.414 10.639c.642 0 1.194.1 1.657.302.462.2.843.485 1.142.85.299.367.52.8.668 1.3.146.5.22 1.05.22 1.648 0 .513-.11.851-.33 1.016-.22.165-.489.247-.803.247h-5.176c0 .63.074 1.169.22 1.612.147.443.349.8.603 1.074.254.273.555.47.9.591a3.32 3.32 0 0 0 1.11.182c.374 0 .739-.047 1.097-.147.354-.096.658-.22.906-.364.136-.075.232-.05.29.072l.303.644c.068.149.04.253-.084.316-.395.26-.817.438-1.269.53-.451.092-.89.14-1.319.14-1.24 0-2.215-.394-2.926-1.181-.71-.788-1.065-2.047-1.065-3.78 0-.818.095-1.542.288-2.17.191-.628.458-1.155.802-1.583.345-.427.75-.75 1.217-.97.468-.22.984-.33 1.549-.33zm2.504 4.265c0-.415-.04-.812-.12-1.19a2.885 2.885 0 0 0-.399-.999 2.017 2.017 0 0 0-.773-.686c-.327-.17-.735-.255-1.22-.255-.396 0-.75.082-1.062.247a2.373 2.373 0 0 0-.788.668c-.215.28-.383.61-.501.988a4.916 4.916 0 0 0-.211 1.227h5.074zM35.141 19.608c0 .22-.08.366-.237.439a5.934 5.934 0 0 1-1.623.476c-.576.085-1.128.129-1.657.129-.723 0-1.314-.087-1.776-.257-.463-.172-.83-.396-1.1-.671a2.267 2.267 0 0 1-.568-.955 3.98 3.98 0 0 1-.159-1.129c0-.453.073-.877.22-1.276a2.79 2.79 0 0 1 .667-1.037c.3-.293.674-.522 1.125-.689.452-.165.987-.247 1.607-.247h2.25v-.488c0-.3-.029-.58-.085-.838a1.454 1.454 0 0 0-.321-.66 1.572 1.572 0 0 0-.66-.423c-.282-.102-.648-.154-1.1-.154-.371 0-.78.04-1.225.119-.446.08-.826.175-1.142.284a.46.46 0 0 1-.186.028c-.046-.006-.08-.052-.102-.137l-.169-.666c-.034-.135.011-.229.136-.28.202-.084.423-.163.66-.23a8.83 8.83 0 0 1 .734-.177c.255-.05.51-.084.77-.102.259-.018.502-.028.728-.028 1.093 0 1.902.263 2.426.787.526.525.787 1.294.787 2.305v5.877zm-1.269-4.028h-2.181c-.203 0-.446.02-.728.056a2.22 2.22 0 0 0-.802.267c-.255.141-.469.35-.643.625-.176.276-.263.652-.263 1.13 0 .368.064.675.194.92.13.246.305.441.526.588.22.148.47.249.752.305a4.631 4.631 0 0 0 1.294.063c.174-.011.368-.03.582-.055a5.2 5.2 0 0 0 1.27-.313V15.58zM42.616 12.872c-.056.061-.1.088-.134.082a.287.287 0 0 1-.119-.064 3.883 3.883 0 0 0-1.091-.768 3.166 3.166 0 0 0-1.378-.294c-.158 0-.336.007-.533.018-.198.013-.409.05-.635.11v8.255c0 .098-.016.163-.05.193-.036.031-.099.046-.19.046h-.77c-.082 0-.138-.015-.173-.046-.035-.03-.051-.095-.051-.193v-8.254c0-.38.06-.66.18-.843.12-.182.363-.305.728-.366.511-.073.981-.11 1.409-.11 1.319 0 2.424.416 3.316 1.246.078.085.084.17.015.256l-.524.732M47.759 10.639c.641 0 1.195.1 1.657.302.461.2.843.485 1.142.85.298.367.521.8.668 1.3.145.5.22 1.05.22 1.648 0 .513-.111.851-.33 1.016a1.3 1.3 0 0 1-.804.247h-5.175c0 .63.073 1.169.22 1.612.148.443.349.8.602 1.074.256.273.555.47.9.591a3.32 3.32 0 0 0 1.11.182c.374 0 .74-.047 1.096-.147.357-.096.659-.22.907-.364.136-.075.232-.05.29.072l.303.644c.068.149.04.253-.084.316-.395.26-.818.438-1.269.53-.451.092-.89.14-1.318.14-1.242 0-2.216-.394-2.926-1.181-.71-.788-1.066-2.047-1.066-3.78 0-.818.095-1.542.288-2.17.191-.628.458-1.155.803-1.583.344-.427.75-.75 1.217-.97.469-.22.984-.33 1.549-.33zm2.503 4.265c0-.415-.04-.812-.12-1.19a2.915 2.915 0 0 0-.399-.999 2.013 2.013 0 0 0-.771-.686c-.329-.17-.735-.255-1.223-.255-.396 0-.75.082-1.06.247a2.392 2.392 0 0 0-.789.668c-.215.28-.381.61-.5.988-.12.379-.19.787-.213 1.227h5.075z"/>
    </g>
</svg>
